<svg width="24" height="24" viewBox="0 0 24 24" fill="none" xmlns="http://www.w3.org/2000/svg">
<path d="M10.5846 10.5869C10.2096 10.9621 9.99893 11.4708 9.99902 12.0013C9.99912 12.5317 10.2099 13.0404 10.5851 13.4154C10.9602 13.7904 11.469 14.0011 11.9994 14.001C12.5299 14.0009 13.0386 13.7901 13.4136 13.4149" stroke="black" stroke-opacity="0.75" stroke-width="2" stroke-linecap="round" stroke-linejoin="round"/>
<path d="M16.681 16.673C15.2786 17.5515 13.6548 18.0119 12 18C8.4 18 5.4 16 3 12C4.272 9.88 5.712 8.322 7.32 7.326M10.18 6.18C10.779 6.05836 11.3888 5.99804 12 6C15.6 6 18.6 8 21 12C20.3333 13.11 19.6207 14.0667 18.862 14.87M3 3L21 21" stroke="black" stroke-opacity="0.75" stroke-width="2" stroke-linecap="round" stroke-linejoin="round"/>
</svg>
